<svg width="26" height="30" viewBox="0 0 26 30" fill="none" xmlns="http://www.w3.org/2000/svg">
<path d="M7.84952 1.33476C7.84952 0.828764 7.45524 0.414764 6.97333 0.414764C6.49143 0.414764 6.09714 0.828764 6.09714 1.33476V4.09476H4.34476C2.41166 4.09476 0.839996 5.74501 0.839996 7.77476V9.61476V11.4548V26.1748C0.839996 28.2045 2.41166 29.8548 4.34476 29.8548H21.8686C23.8017 29.8548 25.3733 28.2045 25.3733 26.1748V11.4548V9.61476V7.77476C25.3733 5.74501 23.8017 4.09476 21.8686 4.09476H20.1162V1.33476C20.1162 0.828764 19.7219 0.414764 19.24 0.414764C18.7581 0.414764 18.3638 0.828764 18.3638 1.33476V4.09476H7.84952V1.33476ZM2.59238 11.4548H23.621V26.1748C23.621 27.1925 22.8379 28.0148 21.8686 28.0148H4.34476C3.37547 28.0148 2.59238 27.1925 2.59238 26.1748V11.4548ZM4.34476 5.93476H21.8686C22.8379 5.93476 23.621 6.75701 23.621 7.77476V9.61476H2.59238V7.77476C2.59238 6.75701 3.37547 5.93476 4.34476 5.93476ZM6.53523 15.1348H10.9162C11.1571 15.1348 11.3543 15.3418 11.3543 15.5948V20.1948C11.3543 20.4478 11.1571 20.6548 10.9162 20.6548H6.53523C6.29428 20.6548 6.09714 20.4478 6.09714 20.1948V15.5948C6.09714 15.3418 6.29428 15.1348 6.53523 15.1348ZM4.34476 15.5948V20.1948C4.34476 21.4655 5.325 22.4948 6.53523 22.4948H10.9162C12.1264 22.4948 13.1067 21.4655 13.1067 20.1948V15.5948C13.1067 14.324 12.1264 13.2948 10.9162 13.2948H6.53523C5.325 13.2948 4.34476 14.324 4.34476 15.5948Z" fill="white"/>
</svg>
