<svg width="26" height="26" viewBox="0 0 26 26" fill="none" xmlns="http://www.w3.org/2000/svg">
<path d="M22.52 14.3881C22.5733 13.9881 22.6 13.5748 22.6 13.1348C22.6 12.7081 22.5733 12.2814 22.5067 11.8814L25.2133 9.77478C25.4533 9.58811 25.52 9.22811 25.3733 8.96144L22.8133 4.53478C22.6533 4.24144 22.32 4.14811 22.0267 4.24144L18.84 5.52144C18.1733 5.01478 17.4667 4.58811 16.68 4.26811L16.2 0.881444C16.1467 0.561444 15.88 0.334778 15.56 0.334778H10.44C10.12 0.334778 9.86666 0.561444 9.81333 0.881444L9.33333 4.26811C8.54667 4.58811 7.82666 5.02811 7.17333 5.52144L3.98666 4.24144C3.69333 4.13478 3.36 4.24144 3.2 4.53478L0.653332 8.96144C0.493332 9.24144 0.546665 9.58811 0.813332 9.77478L3.52 11.8814C3.45333 12.2814 3.4 12.7214 3.4 13.1348C3.4 13.5481 3.42667 13.9881 3.49333 14.3881L0.786665 16.4948C0.546665 16.6814 0.479999 17.0414 0.626665 17.3081L3.18667 21.7348C3.34667 22.0281 3.68 22.1214 3.97333 22.0281L7.16 20.7481C7.82666 21.2548 8.53333 21.6814 9.32 22.0014L9.8 25.3881C9.86666 25.7081 10.12 25.9348 10.44 25.9348H15.56C15.88 25.9348 16.1467 25.7081 16.1867 25.3881L16.6667 22.0014C17.4533 21.6814 18.1733 21.2548 18.8267 20.7481L22.0133 22.0281C22.3067 22.1348 22.64 22.0281 22.8 21.7348L25.36 17.3081C25.52 17.0148 25.4533 16.6814 25.2 16.4948L22.52 14.3881ZM13 17.9348C10.36 17.9348 8.2 15.7748 8.2 13.1348C8.2 10.4948 10.36 8.33478 13 8.33478C15.64 8.33478 17.8 10.4948 17.8 13.1348C17.8 15.7748 15.64 17.9348 13 17.9348Z" fill="#FDFDFD"/>
</svg>
