<svg width="32" height="33" viewBox="0 0 32 33" fill="none" xmlns="http://www.w3.org/2000/svg">
<g clip-path="url(#clip0_1_268)">
<path d="M26.6667 5.4681H5.33333C3.85333 5.4681 2.68 6.65477 2.68 8.13477L2.66667 24.1348C2.66667 25.6148 3.85333 26.8014 5.33333 26.8014H26.6667C28.1467 26.8014 29.3333 25.6148 29.3333 24.1348V8.13477C29.3333 6.65477 28.1467 5.4681 26.6667 5.4681ZM11.3333 20.1348H9.73334L6.33333 15.4681V20.1348H4.66667V12.1348H6.33333L9.66667 16.8014V12.1348H11.3333V20.1348ZM18 13.8148H14.6667V15.3081H18V16.9881H14.6667V18.4681H18V20.1348H12.6667V12.1348H18V13.8148ZM27.3333 18.8014C27.3333 19.5348 26.7333 20.1348 26 20.1348H20.6667C19.9333 20.1348 19.3333 19.5348 19.3333 18.8014V12.1348H21V18.1481H22.5067V13.4548H24.1733V18.1348H25.6667V12.1348H27.3333V18.8014Z" fill="#FDFDFD"/>
</g>
<defs>
<clipPath id="clip0_1_268">
<rect width="32" height="32" fill="white" transform="translate(0 0.134766)"/>
</clipPath>
</defs>
</svg>
