<svg width="28" height="22" viewBox="0 0 28 22" fill="none" xmlns="http://www.w3.org/2000/svg">
<path d="M24.6667 3.13476H14L11.3333 0.468094H3.33333C1.86667 0.468094 0.680001 1.66809 0.680001 3.13476L0.666668 19.1348C0.666668 20.6014 1.86667 21.8014 3.33333 21.8014H24.6667C26.1333 21.8014 27.3333 20.6014 27.3333 19.1348V5.80143C27.3333 4.33476 26.1333 3.13476 24.6667 3.13476ZM18 7.13476C19.4667 7.13476 20.6667 8.33476 20.6667 9.80143C20.6667 11.2681 19.4667 12.4681 18 12.4681C16.5333 12.4681 15.3333 11.2681 15.3333 9.80143C15.3333 8.33476 16.5333 7.13476 18 7.13476ZM23.3333 17.8014H12.6667V16.4681C12.6667 14.6948 16.2267 13.8014 18 13.8014C19.7733 13.8014 23.3333 14.6948 23.3333 16.4681V17.8014Z" fill="#FDFDFD"/>
</svg>
