<svg width="28" height="31" viewBox="0 0 28 31" fill="none" xmlns="http://www.w3.org/2000/svg">
<path d="M19.76 7.81477C19.76 7.05835 19.611 6.30935 19.3215 5.61051C19.0321 4.91167 18.6078 4.2767 18.0729 3.74183C17.5381 3.20697 16.9031 2.78269 16.2043 2.49322C15.5054 2.20375 14.7564 2.05477 14 2.05477C13.2436 2.05477 12.4946 2.20375 11.7957 2.49322C11.0969 2.78269 10.4619 3.20697 9.92707 3.74183C9.3922 4.2767 8.96792 4.91167 8.67846 5.61051C8.38899 6.30935 8.24 7.05835 8.24 7.81477C8.24 8.57118 8.38899 9.32019 8.67846 10.019C8.96792 10.7179 9.3922 11.3528 9.92707 11.8877C10.4619 12.4226 11.0969 12.8468 11.7957 13.1363C12.4946 13.4258 13.2436 13.5748 14 13.5748C14.7564 13.5748 15.5054 13.4258 16.2043 13.1363C16.9031 12.8468 17.5381 12.4226 18.0729 11.8877C18.6078 11.3528 19.0321 10.7179 19.3215 10.019C19.611 9.32019 19.76 8.57118 19.76 7.81477ZM6.32 7.81477C6.32 5.7779 7.12914 3.82447 8.56942 2.38419C10.0097 0.943906 11.9631 0.134766 14 0.134766C16.0369 0.134766 17.9903 0.943906 19.4306 2.38419C20.8709 3.82447 21.68 5.7779 21.68 7.81477C21.68 9.85163 20.8709 11.8051 19.4306 13.2453C17.9903 14.6856 16.0369 15.4948 14 15.4948C11.9631 15.4948 10.0097 14.6856 8.56942 13.2453C7.12914 11.8051 6.32 9.85163 6.32 7.81477ZM2.48 28.9348H25.52C25.448 24.1528 21.548 20.2948 16.742 20.2948H11.258C6.458 20.2948 2.558 24.1528 2.48 28.9348ZM0.560001 29.0728C0.560001 23.1628 5.348 18.3748 11.258 18.3748H16.742C22.652 18.3748 27.44 23.1628 27.44 29.0728C27.44 30.0568 26.642 30.8548 25.658 30.8548H2.342C1.358 30.8548 0.560001 30.0568 0.560001 29.0728Z" fill="white"/>
</svg>
